<svg width="36" height="36" viewBox="0 0 36 36" fill="none" xmlns="http://www.w3.org/2000/svg">
<rect width="36" height="36" rx="18" fill="#F9F9F9"/>
<path d="M18 10.5C13.8578 10.5 10.5 13.8578 10.5 18C10.5 21.7432 13.2427 24.846 16.8285 25.4093V20.1675H14.9235V18H16.8285V16.3477C16.8285 14.4682 17.9475 13.4303 19.6613 13.4303C20.4818 13.4303 21.3397 13.5765 21.3397 13.5765V15.4215H20.3947C19.4625 15.4215 19.1722 15.9997 19.1722 16.593V18H21.252L20.9198 20.1675H19.1722V25.4093C22.7572 24.8468 25.5 21.7425 25.5 18C25.5 13.8578 22.1423 10.5 18 10.5Z" fill="#151515"/>
</svg>
