<svg width="36" height="36" viewBox="0 0 36 36" fill="none" xmlns="http://www.w3.org/2000/svg">
<rect width="36" height="36" rx="18" fill="#F9F9F9"/>
<path d="M18 15.75C17.4033 15.75 16.831 15.9871 16.409 16.409C15.9871 16.831 15.75 17.4033 15.75 18C15.75 18.5967 15.9871 19.169 16.409 19.591C16.831 20.0129 17.4033 20.25 18 20.25C18.5967 20.25 19.169 20.0129 19.591 19.591C20.0129 19.169 20.25 18.5967 20.25 18C20.25 17.4033 20.0129 16.831 19.591 16.409C19.169 15.9871 18.5967 15.75 18 15.75ZM18 14.25C18.9946 14.25 19.9484 14.6451 20.6517 15.3483C21.3549 16.0516 21.75 17.0054 21.75 18C21.75 18.9946 21.3549 19.9484 20.6517 20.6517C19.9484 21.3549 18.9946 21.75 18 21.75C17.0054 21.75 16.0516 21.3549 15.3483 20.6517C14.6451 19.9484 14.25 18.9946 14.25 18C14.25 17.0054 14.6451 16.0516 15.3483 15.3483C16.0516 14.6451 17.0054 14.25 18 14.25ZM22.875 14.0625C22.875 14.3111 22.7762 14.5496 22.6004 14.7254C22.4246 14.9012 22.1861 15 21.9375 15C21.6889 15 21.4504 14.9012 21.2746 14.7254C21.0988 14.5496 21 14.3111 21 14.0625C21 13.8139 21.0988 13.5754 21.2746 13.3996C21.4504 13.2238 21.6889 13.125 21.9375 13.125C22.1861 13.125 22.4246 13.2238 22.6004 13.3996C22.7762 13.5754 22.875 13.8139 22.875 14.0625ZM18 12C16.1445 12 15.8415 12.0053 14.9783 12.0435C14.3903 12.0713 13.9957 12.15 13.6297 12.2925C13.3235 12.405 13.0466 12.5852 12.8197 12.8197C12.585 13.0465 12.4045 13.3234 12.2917 13.6297C12.1492 13.9972 12.0705 14.391 12.0435 14.9783C12.0045 15.8063 12 16.0957 12 18C12 19.8555 12.0053 20.1585 12.0435 21.0217C12.0713 21.609 12.15 22.0043 12.2917 22.3695C12.4193 22.6958 12.5693 22.9305 12.8183 23.1795C13.071 23.4315 13.3057 23.5822 13.6283 23.7067C13.9987 23.85 14.3933 23.9295 14.9783 23.9565C15.8063 23.9955 16.0957 24 18 24C19.8555 24 20.1585 23.9948 21.0217 23.9565C21.6082 23.9288 22.0035 23.85 22.3695 23.7083C22.6753 23.5952 22.9521 23.4154 23.1795 23.1818C23.4323 22.929 23.583 22.6943 23.7075 22.3717C23.85 22.002 23.9295 21.6067 23.9565 21.0217C23.9955 20.1937 24 19.9043 24 18C24 16.1445 23.9948 15.8415 23.9565 14.9783C23.9288 14.3918 23.85 13.9957 23.7075 13.6297C23.5945 13.3238 23.4143 13.047 23.1803 12.8197C22.9536 12.5849 22.6766 12.4044 22.3702 12.2917C22.0027 12.1492 21.6082 12.0705 21.0217 12.0435C20.1937 12.0045 19.9043 12 18 12ZM18 10.5C20.0378 10.5 20.292 10.5075 21.0915 10.545C21.8903 10.5825 22.434 10.7078 22.9125 10.8938C23.4075 11.0843 23.8245 11.3422 24.2415 11.7585C24.6229 12.1334 24.918 12.5869 25.1063 13.0875C25.2915 13.5652 25.4175 14.1097 25.455 14.9085C25.4903 15.708 25.5 15.9622 25.5 18C25.5 20.0378 25.4925 20.292 25.455 21.0915C25.4175 21.8903 25.2915 22.434 25.1063 22.9125C24.9185 23.4133 24.6233 23.867 24.2415 24.2415C23.8665 24.6227 23.413 24.9178 22.9125 25.1063C22.4347 25.2915 21.8903 25.4175 21.0915 25.455C20.292 25.4903 20.0378 25.5 18 25.5C15.9622 25.5 15.708 25.4925 14.9085 25.455C14.1097 25.4175 13.566 25.2915 13.0875 25.1063C12.5867 24.9184 12.1331 24.6232 11.7585 24.2415C11.3771 23.8666 11.0819 23.4131 10.8938 22.9125C10.7078 22.4347 10.5825 21.8903 10.545 21.0915C10.5097 20.292 10.5 20.0378 10.5 18C10.5 15.9622 10.5075 15.708 10.545 14.9085C10.5825 14.109 10.7078 13.566 10.8938 13.0875C11.0814 12.5866 11.3766 12.133 11.7585 11.7585C12.1333 11.3769 12.5868 11.0818 13.0875 10.8938C13.566 10.7078 14.109 10.5825 14.9085 10.545C15.708 10.5097 15.9622 10.5 18 10.5Z" fill="#151515"/>
</svg>
