<svg width="36" height="36" viewBox="0 0 36 36" fill="none" xmlns="http://www.w3.org/2000/svg">
<rect width="36" height="36" rx="18" fill="#151515"/>
<path d="M25.6215 13.2422C25.0489 13.4955 24.4417 13.6618 23.82 13.7357C24.4753 13.3438 24.9658 12.7269 25.2 12.0002C24.585 12.3662 23.9107 12.6227 23.208 12.7614C22.7359 12.2564 22.1102 11.9214 21.4282 11.8086C20.7461 11.6958 20.0459 11.8116 19.4364 12.1378C18.8269 12.464 18.3423 12.9825 18.0578 13.6125C17.7734 14.2426 17.705 14.949 17.8635 15.6219C16.6163 15.5594 15.3962 15.2353 14.2824 14.6707C13.1687 14.106 12.1861 13.3135 11.3985 12.3444C11.1197 12.8233 10.9732 13.3676 10.974 13.9217C10.974 15.0092 11.5275 15.9699 12.369 16.5324C11.871 16.5168 11.384 16.3823 10.9485 16.1402V16.1792C10.9486 16.9035 11.1993 17.6054 11.6579 18.166C12.1165 18.7266 12.7548 19.1113 13.4647 19.2549C13.0024 19.3802 12.5177 19.3987 12.0472 19.3089C12.2474 19.9324 12.6375 20.4776 13.1629 20.8683C13.6884 21.259 14.3228 21.4755 14.9775 21.4877C14.3268 21.9987 13.5819 22.3764 12.7851 22.5993C11.9884 22.8222 11.1556 22.8859 10.3342 22.7867C11.768 23.7088 13.4371 24.1983 15.1417 24.1967C20.9115 24.1967 24.0667 19.4169 24.0667 15.2717C24.0667 15.1367 24.063 15.0002 24.057 14.8667C24.6711 14.4228 25.2012 13.873 25.6222 13.2429L25.6215 13.2422Z" fill="white"/>
</svg>
