<svg width="141" height="31" viewBox="0 0 141 31" fill="none" xmlns="http://www.w3.org/2000/svg">
<path d="M23.0655 13.871C22.6865 14.2523 22.3963 14.7125 22.2155 15.2187C22.0347 15.725 21.9678 16.2649 22.0195 16.8L22.0015 16.782C22.0547 17.4119 21.9697 18.0457 21.7526 18.6394C21.5355 19.233 21.1915 19.7721 20.7446 20.2191C20.2976 20.666 19.7585 21.0101 19.1648 21.2271C18.5712 21.4442 17.9373 21.5292 17.3075 21.476L17.3255 21.494C16.5721 21.4239 15.8154 21.5878 15.1585 21.9635C14.5017 22.3392 13.9767 22.9083 13.6552 23.5933C13.3337 24.2783 13.2312 25.0457 13.3618 25.7911C13.4925 26.5364 13.8498 27.2233 14.3851 27.7581C14.9204 28.2929 15.6076 28.6496 16.353 28.7795C17.0985 28.9095 17.8658 28.8063 18.5505 28.4842C19.2352 28.162 19.8038 27.6366 20.1789 26.9794C20.554 26.3222 20.7173 25.5654 20.6465 24.812L20.6655 24.83C20.6123 24.2002 20.6972 23.5663 20.9143 22.9726C21.1314 22.379 21.4755 21.8399 21.9224 21.3929C22.3694 20.946 22.9085 20.6019 23.5021 20.3849C24.0958 20.1678 24.7296 20.0828 25.3595 20.136L25.3405 20.118C25.9559 20.1733 26.5754 20.0724 27.1415 19.8246C27.7075 19.5768 28.2019 19.1901 28.5787 18.7004C28.9555 18.2107 29.2027 17.6337 29.2971 17.0231C29.3916 16.4124 29.3304 15.7878 29.1192 15.207C28.908 14.6263 28.5536 14.1083 28.0889 13.701C27.6242 13.2937 27.0642 13.0103 26.4608 12.8771C25.8574 12.7439 25.2301 12.7651 24.6371 12.9388C24.0441 13.1126 23.5046 13.4332 23.0685 13.871H23.0655Z" fill="#151515"/>
<path d="M15.6885 19.136L15.6695 19.118C16.2048 19.1719 16.7454 19.1062 17.2523 18.9256C17.7591 18.745 18.2195 18.4541 18.6001 18.0738C18.9806 17.6935 19.272 17.2333 19.4529 16.7266C19.6339 16.2199 19.7 15.6794 19.6465 15.144L19.6655 15.162C19.6123 14.5321 19.6973 13.8983 19.9143 13.3046C20.1314 12.711 20.4755 12.1719 20.9224 11.7249C21.3694 11.278 21.9085 10.9339 22.5021 10.7169C23.0958 10.4998 23.7296 10.4148 24.3595 10.468L24.3405 10.45C25.094 10.5208 25.8509 10.3574 26.5081 9.9821C27.1654 9.60684 27.6908 9.03797 28.0128 8.3531C28.3348 7.66824 28.4377 6.90071 28.3075 6.1552C28.1773 5.40969 27.8203 4.72251 27.2851 4.18737C26.75 3.65224 26.0628 3.2952 25.3173 3.16498C24.5718 3.03475 23.8043 3.13766 23.1194 3.45968C22.4345 3.78169 21.8657 4.30714 21.4904 4.96435C21.1151 5.62155 20.9517 6.37852 21.0225 7.132L21.0045 7.113C21.0578 7.74289 20.973 8.37683 20.756 8.97055C20.539 9.56427 20.1949 10.1035 19.748 10.5505C19.301 10.9974 18.7618 11.3415 18.1681 11.5585C17.5743 11.7755 16.9404 11.8603 16.3105 11.807L16.3285 11.826C15.7932 11.7721 15.2525 11.8378 14.7457 12.0184C14.2389 12.1989 13.7785 12.4899 13.3979 12.8702C13.0173 13.2505 12.726 13.7107 12.545 14.2174C12.3641 14.7241 12.298 15.2646 12.3515 15.8L12.3335 15.782C12.3865 16.4118 12.3014 17.0456 12.0843 17.6392C11.8671 18.2327 11.5231 18.7718 11.0762 19.2187C10.6292 19.6656 10.0902 20.0096 9.49665 20.2268C8.90309 20.4439 8.2693 20.529 7.63949 20.476L7.65749 20.494C6.90401 20.4232 6.14704 20.5866 5.48983 20.9619C4.83263 21.3372 4.30718 21.906 3.98517 22.5909C3.66315 23.2758 3.56023 24.0433 3.69046 24.7888C3.82069 25.5343 4.17773 26.2215 4.71286 26.7566C5.248 27.2918 5.93518 27.6488 6.68069 27.779C7.4262 27.9092 8.19373 27.8063 8.8786 27.4843C9.56346 27.1623 10.1323 26.6369 10.5076 25.9797C10.8829 25.3224 11.0463 24.5655 10.9755 23.812L10.9945 23.83C10.9413 23.2001 11.0263 22.5663 11.2434 21.9726C11.4604 21.379 11.8045 20.8399 12.2514 20.3929C12.6984 19.946 13.2375 19.6019 13.8311 19.3849C14.4248 19.1678 15.0586 19.0828 15.6885 19.136Z" fill="#151515"/>
<path d="M8.98648 17.1289C9.3655 16.7477 9.65568 16.2875 9.83632 15.7812C10.017 15.2749 10.0836 14.7349 10.0315 14.1999L10.0505 14.2179C9.99727 13.5879 10.0822 12.9538 10.2994 12.36C10.5167 11.7662 10.8609 11.227 11.3081 10.78C11.7553 10.3331 12.2946 9.98907 12.8885 9.77212C13.4824 9.55516 14.1165 9.47046 14.7465 9.52394L14.7275 9.50594C15.4807 9.57651 16.2374 9.41302 16.8943 9.03778C17.5512 8.66255 18.0763 8.09382 18.3982 7.40917C18.72 6.72451 18.8228 5.95726 18.6926 5.21203C18.5624 4.4668 18.2054 3.77988 17.6705 3.24494C17.1356 2.71 16.4486 2.35308 15.7034 2.22286C14.9582 2.09263 14.1909 2.19545 13.5063 2.51727C12.8216 2.83909 12.2529 3.36426 11.8777 4.02116C11.5024 4.67806 11.3389 5.43472 11.4095 6.18794L11.3915 6.16994C11.4447 6.79979 11.3597 7.43366 11.1426 8.0273C10.9255 8.62094 10.5815 9.16005 10.1345 9.60701C9.68759 10.054 9.14847 10.398 8.55483 10.615C7.96119 10.8321 7.32733 10.9171 6.69748 10.8639L6.71548 10.8819C6.10005 10.8267 5.48064 10.9278 4.91466 11.1757C4.34868 11.4236 3.85443 11.8104 3.47772 12.3002C3.10101 12.7899 2.85403 13.3669 2.75965 13.9775C2.66528 14.5882 2.72657 15.2128 2.93784 15.7934C3.14911 16.3741 3.50354 16.892 3.96827 17.2992C4.433 17.7065 4.993 17.9898 5.59638 18.123C6.19975 18.2561 6.82698 18.2348 7.41995 18.0611C8.01291 17.8873 8.55241 17.5667 8.98847 17.1289H8.98648Z" fill="#151515"/>
<path d="M39.9635 7.15503H42.9335V21.608H39.9635V7.15503Z" fill="#151515"/>
<path d="M44.6155 16.6591C44.6114 15.6205 44.9156 14.6039 45.4896 13.7383C46.0636 12.8727 46.8816 12.1969 47.84 11.7966C48.7984 11.3962 49.854 11.2893 50.8732 11.4894C51.8924 11.6895 52.8293 12.1875 53.5652 12.9205C54.3011 13.6534 54.8029 14.5883 55.0071 15.6067C55.2113 16.6251 55.1086 17.6812 54.7121 18.6412C54.3156 19.6011 53.6431 20.4219 52.7798 20.9993C51.9164 21.5768 50.9012 21.8851 49.8625 21.8851C49.1731 21.893 48.489 21.7633 47.8502 21.5037C47.2114 21.2441 46.6308 20.8598 46.1423 20.3733C45.6537 19.8867 45.2671 19.3076 45.005 18.6699C44.7428 18.0322 44.6104 17.3486 44.6155 16.6591ZM52.1395 16.6591C52.1271 16.2114 51.983 15.7773 51.7253 15.411C51.4675 15.0448 51.1075 14.7626 50.6903 14.5999C50.273 14.4371 49.8171 14.4009 49.3794 14.4959C48.9417 14.5909 48.5417 14.8127 48.2294 15.1338C47.9172 15.4548 47.7064 15.8608 47.6237 16.301C47.5409 16.7411 47.5896 17.1959 47.7639 17.6085C47.9382 18.0211 48.2302 18.3731 48.6034 18.6206C48.9767 18.8681 49.4147 19.0001 49.8625 19.0001C50.1692 19.0083 50.4743 18.9528 50.7586 18.8372C51.0428 18.7216 51.3 18.5484 51.5139 18.3285C51.7278 18.1085 51.8939 17.8466 52.0015 17.5593C52.1092 17.272 52.1562 16.9655 52.1395 16.6591Z" fill="#151515"/>
<path d="M66.9465 11.7091V21.1091C66.9465 24.4351 64.3525 25.8411 61.7195 25.8411C60.7925 25.9105 59.8642 25.7232 59.0365 25.2999C58.2089 24.8765 57.5138 24.2334 57.0275 23.4411L59.5615 21.9761C59.7659 22.3891 60.0916 22.7298 60.4949 22.9527C60.8983 23.1755 61.3601 23.2699 61.8185 23.2231C62.1115 23.2637 62.4099 23.2379 62.6916 23.1476C62.9732 23.0573 63.231 22.9048 63.4458 22.7015C63.6606 22.4981 63.8269 22.2491 63.9325 21.9727C64.038 21.6964 64.08 21.3999 64.0555 21.1051V20.2001C63.7077 20.6256 63.2651 20.9637 62.763 21.1872C62.2609 21.4107 61.7135 21.5134 61.1645 21.4871C59.8583 21.4459 58.6194 20.8981 57.71 19.9595C56.8006 19.021 56.2921 17.7654 56.2921 16.4586C56.2921 15.1518 56.8006 13.8962 57.71 12.9577C58.6194 12.0191 59.8583 11.4713 61.1645 11.4301C61.7135 11.4038 62.2609 11.5065 62.763 11.73C63.2651 11.9535 63.7077 12.2916 64.0555 12.7171V11.7071L66.9465 11.7091ZM64.0565 16.4601C64.0765 15.9815 63.9527 15.5078 63.7012 15.1001C63.4497 14.6923 63.0819 14.3692 62.6452 14.1723C62.2085 13.9753 61.7229 13.9136 61.2508 13.995C60.7787 14.0764 60.3418 14.2972 59.9962 14.6291C59.6507 14.9609 59.4124 15.3885 59.3119 15.8569C59.2115 16.3253 59.2535 16.8131 59.4327 17.2574C59.6118 17.7017 59.9198 18.0823 60.317 18.3501C60.7142 18.6179 61.1825 18.7607 61.6615 18.7601C61.9736 18.7819 62.2867 18.7381 62.5808 18.6315C62.8749 18.5249 63.1434 18.3578 63.369 18.1412C63.5946 17.9245 63.7724 17.663 63.8908 17.3734C64.0092 17.0839 64.0657 16.7728 64.0565 16.4601Z" fill="#151515"/>
<path d="M68.6285 16.6591C68.6244 15.6205 68.9285 14.6039 69.5026 13.7383C70.0766 12.8727 70.8946 12.1969 71.853 11.7966C72.8114 11.3962 73.867 11.2893 74.8862 11.4894C75.9054 11.6895 76.8423 12.1875 77.5782 12.9205C78.3141 13.6534 78.8159 14.5883 79.0201 15.6067C79.2243 16.6251 79.1216 17.6812 78.7251 18.6412C78.3286 19.6011 77.6561 20.4219 76.7928 20.9993C75.9294 21.5768 74.9142 21.8851 73.8755 21.8851C73.1861 21.893 72.5019 21.7633 71.8632 21.5037C71.2244 21.2441 70.6438 20.8598 70.1553 20.3733C69.6667 19.8867 69.2801 19.3076 69.018 18.6699C68.7558 18.0322 68.6234 17.3486 68.6285 16.6591ZM76.1525 16.6591C76.1401 16.2114 75.996 15.7773 75.7383 15.411C75.4805 15.0448 75.1205 14.7626 74.7033 14.5999C74.286 14.4371 73.83 14.4009 73.3924 14.4959C72.9547 14.5909 72.5547 14.8127 72.2424 15.1338C71.9302 15.4548 71.7194 15.8608 71.6366 16.301C71.5538 16.7411 71.6026 17.1959 71.7769 17.6085C71.9512 18.0211 72.2432 18.3731 72.6164 18.6206C72.9897 18.8681 73.4276 19.0001 73.8755 19.0001C74.1822 19.0083 74.4873 18.9528 74.7715 18.8372C75.0558 18.7216 75.313 18.5484 75.5269 18.3285C75.7408 18.1085 75.9069 17.8466 76.0145 17.5593C76.1222 17.272 76.1692 16.9655 76.1525 16.6591Z" fill="#151515"/>
<path d="M80.5075 9.05593C80.5075 8.70348 80.612 8.35895 80.8078 8.06591C81.0036 7.77286 81.282 7.54445 81.6076 7.40958C81.9332 7.2747 82.2915 7.23941 82.6372 7.30817C82.9828 7.37693 83.3004 7.54665 83.5496 7.79587C83.7988 8.04508 83.9685 8.3626 84.0373 8.70828C84.106 9.05395 84.0707 9.41225 83.9359 9.73787C83.801 10.0635 83.5726 10.3418 83.2795 10.5376C82.9865 10.7334 82.642 10.8379 82.2895 10.8379C81.8184 10.8332 81.3678 10.644 81.0346 10.3108C80.7015 9.97763 80.5122 9.52709 80.5075 9.05593ZM80.8075 11.7089H83.7785V21.6089H80.8035L80.8075 11.7089Z" fill="#151515"/>
<path d="M96.6025 16.659C96.6368 17.3133 96.5415 17.9679 96.3219 18.5852C96.1024 19.2025 95.763 19.7703 95.3232 20.256C94.8835 20.7416 94.352 21.1356 93.7595 21.4152C93.1669 21.6947 92.525 21.8544 91.8705 21.885C91.3201 21.915 90.77 21.8222 90.2599 21.6133C89.7498 21.4043 89.2927 21.0845 88.9215 20.677V25.568H85.9515V11.709H88.9215V12.639C89.2928 12.2318 89.7501 11.9122 90.2601 11.7035C90.7702 11.4947 91.3202 11.402 91.8705 11.432C92.5251 11.4625 93.1672 11.6221 93.7599 11.9017C94.3526 12.1813 94.8841 12.5753 95.3239 13.0611C95.7637 13.5469 96.1031 14.1149 96.3225 14.7324C96.5419 15.3498 96.6371 16.0046 96.6025 16.659ZM93.6325 16.659C93.6209 16.1957 93.4729 15.7461 93.207 15.3664C92.9411 14.9868 92.5692 14.694 92.1378 14.5248C91.7063 14.3555 91.2345 14.3172 90.7814 14.4148C90.3283 14.5123 89.9141 14.7413 89.5905 15.0731C89.2669 15.405 89.0484 15.8248 88.9623 16.2803C88.8762 16.7357 88.9263 17.2063 89.1064 17.6334C89.2864 18.0605 89.5885 18.4249 89.9747 18.6812C90.3609 18.9374 90.814 19.0741 91.2775 19.074C91.5957 19.0882 91.9133 19.0349 92.2095 18.9177C92.5056 18.8006 92.7737 18.6221 92.996 18.3941C93.2184 18.166 93.39 17.8936 93.4997 17.5946C93.6094 17.2956 93.6547 16.9767 93.6325 16.659Z" fill="#151515"/>
<path d="M105.767 18.6381C105.767 20.9151 103.788 21.8851 101.65 21.8851C100.786 21.9633 99.9192 21.7807 99.1603 21.3606C98.4014 20.9406 97.786 20.3026 97.3935 19.5291L99.9665 18.0641C100.071 18.4216 100.294 18.7327 100.6 18.9452C100.905 19.1578 101.275 19.2591 101.646 19.2321C102.358 19.2321 102.715 19.0141 102.715 18.6191C102.715 17.5291 97.8445 18.1041 97.8445 14.6791C97.8445 12.5201 99.6665 11.4321 101.725 11.4321C102.499 11.4076 103.265 11.5912 103.944 11.9637C104.623 12.3363 105.19 12.8841 105.585 13.5501L103.051 14.9161C102.94 14.6568 102.755 14.4359 102.519 14.281C102.283 14.1261 102.007 14.0441 101.725 14.0451C101.21 14.0451 100.893 14.2451 100.893 14.5991C100.897 15.7281 105.767 14.9751 105.767 18.6381Z" fill="#151515"/>
<path d="M116.616 11.709V21.609H113.646V20.678C113.303 21.0888 112.868 21.4125 112.376 21.6225C111.884 21.8325 111.35 21.9228 110.816 21.886C108.816 21.886 107.116 20.461 107.116 17.786V11.709H110.086V17.351C110.061 17.5868 110.088 17.8252 110.165 18.0495C110.241 18.2739 110.366 18.4789 110.53 18.6502C110.694 18.8215 110.893 18.955 111.114 19.0415C111.334 19.128 111.571 19.1654 111.808 19.151C112.897 19.151 113.649 18.518 113.649 17.112V11.712L116.616 11.709Z" fill="#151515"/>
<path d="M133.646 15.53V21.608H130.676V15.787C130.676 14.797 130.201 14.164 129.251 14.164C128.261 14.164 127.706 14.857 127.706 16.025V21.608H124.737V15.787C124.737 14.797 124.262 14.164 123.311 14.164C122.321 14.164 121.767 14.857 121.767 16.025V21.608H118.797V11.708H121.767V12.618C122.075 12.2143 122.479 11.8941 122.942 11.6868C123.406 11.4794 123.914 11.3915 124.42 11.431C124.928 11.4061 125.434 11.5134 125.889 11.7423C126.343 11.9711 126.73 12.3139 127.013 12.737C127.342 12.2943 127.778 11.9423 128.28 11.7139C128.782 11.4855 129.334 11.3882 129.884 11.431C132.157 11.432 133.646 13.055 133.646 15.53Z" fill="#151515"/>
<path d="M136.158 11.648C137.375 11.648 138.362 10.6612 138.362 9.44399C138.362 8.22675 137.375 7.23999 136.158 7.23999C134.941 7.23999 133.954 8.22675 133.954 9.44399C133.954 10.6612 134.941 11.648 136.158 11.648Z" fill="#151515"/>
</svg>
