<svg width="133" height="35" viewBox="0 0 133 35" fill="none" xmlns="http://www.w3.org/2000/svg">
<path d="M30.5856 12.25C30.9456 12.25 31.0656 12.38 31.0656 12.73V20.65H35.1356C35.4856 20.65 35.6156 20.78 35.6156 21.13V21.83C35.6156 22.18 35.4856 22.31 35.1356 22.31H29.7756C29.4256 22.31 29.2856 22.18 29.2856 21.83V12.73C29.2856 12.38 29.4256 12.25 29.7756 12.25H30.5856Z" fill="#151515"/>
<path d="M39.1656 15.74C39.1656 13.43 40.6256 12.04 43.1656 12.04C45.7056 12.04 47.1656 13.43 47.1656 15.74V18.82C47.1656 21.13 45.6956 22.52 43.1656 22.52C40.6356 22.52 39.1656 21.13 39.1656 18.82V15.74ZM45.4856 15.74C45.4856 14.44 44.6757 13.74 43.2157 13.74C41.7557 13.74 40.9557 14.45 40.9557 15.74V18.84C40.9557 20.15 41.7557 20.84 43.2157 20.84C44.6757 20.84 45.4856 20.12 45.4856 18.84V15.74Z" fill="#151515"/>
<path d="M59.0757 16.8C59.4657 16.8 59.5557 16.93 59.5557 17.28V19.18C59.5663 19.6275 59.4766 20.0718 59.2932 20.4801C59.1097 20.8885 58.8373 21.2506 58.4957 21.54C57.6474 22.2155 56.5778 22.5506 55.4957 22.48C52.9057 22.48 51.4957 21.09 51.4957 18.78V15.68C51.4957 13.4 52.9557 12 55.4957 12C57.4957 12 58.7957 12.79 59.3457 14.37C59.3765 14.4294 59.393 14.4951 59.3939 14.5619C59.3948 14.6288 59.3801 14.695 59.351 14.7551C59.3219 14.8153 59.2791 14.8679 59.2261 14.9087C59.1731 14.9494 59.1113 14.9773 59.0457 14.99L58.2657 15.26C57.9257 15.38 57.7857 15.31 57.6657 14.96C57.5 14.5329 57.1967 14.1731 56.8037 13.9377C56.4107 13.7023 55.9505 13.6045 55.4957 13.66C54.0257 13.66 53.2257 14.37 53.2257 15.66V18.84C53.2257 20.15 54.0357 20.84 55.4957 20.84C56.9557 20.84 57.8557 20.17 57.8557 19.19V18.45H55.6857C55.3257 18.45 55.1957 18.31 55.1957 17.96V17.28C55.1957 16.93 55.3257 16.8 55.6857 16.8H59.0757Z" fill="#151515"/>
<path d="M63.6857 15.74C63.6857 13.43 65.1457 12.04 67.6857 12.04C70.2257 12.04 71.6857 13.43 71.6857 15.74V18.82C71.6857 21.13 70.2157 22.52 67.6857 22.52C65.1557 22.52 63.6857 21.13 63.6857 18.82V15.74ZM69.9957 15.74C69.9957 14.44 69.1857 13.74 67.7357 13.74C66.2857 13.74 65.4657 14.45 65.4657 15.74V18.84C65.4657 20.15 66.2757 20.84 67.7357 20.84C69.1957 20.84 69.9957 20.12 69.9957 18.84V15.74Z" fill="#151515"/>
<path d="M76.3956 12.54C76.3956 12.32 76.4656 12.25 76.6856 12.25H77.1456C77.3656 12.25 77.4156 12.32 77.4156 12.54V22.02C77.4156 22.24 77.4156 22.31 77.1456 22.31H76.6856C76.4656 22.31 76.3956 22.24 76.3956 22.02V12.54Z" fill="#151515"/>
<path d="M86.5256 12.25C87.3584 12.25 88.157 12.5808 88.7459 13.1697C89.3348 13.7585 89.6656 14.5572 89.6656 15.39C89.6656 16.2228 89.3348 17.0215 88.7459 17.6103C88.157 18.1992 87.3584 18.53 86.5256 18.53H83.5256V22.02C83.5256 22.24 83.4756 22.31 83.2656 22.31H82.7956C82.5856 22.31 82.5056 22.24 82.5056 22.02V12.54C82.5056 12.32 82.5856 12.25 82.7956 12.25H86.5256ZM86.4356 17.54C86.7219 17.54 87.0054 17.4836 87.2699 17.3741C87.5343 17.2645 87.7747 17.1039 87.9771 16.9015C88.1795 16.6991 88.3401 16.4587 88.4497 16.1943C88.5592 15.9298 88.6156 15.6463 88.6156 15.36C88.6156 15.0737 88.5592 14.7902 88.4497 14.5257C88.3401 14.2613 88.1795 14.0209 87.9771 13.8185C87.7747 13.6161 87.5343 13.4555 87.2699 13.3459C87.0054 13.2364 86.7219 13.18 86.4356 13.18H83.4356V17.54H86.4356Z" fill="#151515"/>
<path d="M97.4756 12.0501C98.2477 11.9649 99.0266 12.131 99.6968 12.5237C100.367 12.9165 100.893 13.5149 101.196 14.2301C101.276 14.3901 101.196 14.5201 101.036 14.6001L100.596 14.8001C100.416 14.8701 100.346 14.8601 100.236 14.6701C100.009 14.1393 99.6195 13.6943 99.1233 13.3995C98.6272 13.1047 98.0501 12.9753 97.4756 13.0301C95.7856 13.0301 94.8656 13.7001 94.8656 14.9001C94.8558 15.2668 94.9789 15.6248 95.2124 15.9078C95.4458 16.1908 95.7737 16.3799 96.1356 16.4401C96.6734 16.6155 97.2311 16.723 97.7956 16.7601C98.4789 16.7965 99.153 16.9347 99.7956 17.1701C100.289 17.326 100.713 17.6466 100.997 18.0782C101.281 18.5098 101.408 19.026 101.356 19.5401C101.356 21.4101 99.9956 22.5401 97.4956 22.5401C96.6756 22.6339 95.8482 22.4439 95.1513 22.0017C94.4544 21.5596 93.93 20.8919 93.6656 20.1101C93.6479 20.0745 93.6384 20.0354 93.6376 19.9956C93.6368 19.9558 93.6449 19.9164 93.6611 19.8801C93.6773 19.8438 93.7014 19.8115 93.7316 19.7856C93.7617 19.7596 93.7972 19.7407 93.8356 19.7301L94.2756 19.5701C94.3102 19.5559 94.3475 19.5491 94.3849 19.5501C94.4223 19.5511 94.4591 19.5599 94.493 19.5759C94.5268 19.5919 94.557 19.6147 94.5815 19.643C94.6061 19.6713 94.6245 19.7043 94.6356 19.7401C94.8593 20.305 95.2571 20.784 95.7713 21.1077C96.2855 21.4313 96.8895 21.5828 97.4956 21.5401C99.3856 21.5401 100.316 20.8801 100.316 19.5401C100.334 19.1879 100.226 18.8408 100.011 18.5606C99.7968 18.2805 99.4901 18.0854 99.1456 18.0101C98.6282 17.8558 98.0946 17.7618 97.5556 17.7301L96.4756 17.5901C96.1376 17.5184 95.8038 17.4282 95.4756 17.3201C95.1514 17.2222 94.8492 17.0626 94.5856 16.8501C94.3203 16.6099 94.1112 16.3143 93.9729 15.9842C93.8347 15.6541 93.7707 15.2977 93.7856 14.9401C93.8556 13.1901 95.1656 12.0501 97.4756 12.0501Z" fill="#151515"/>
<path d="M106.746 18.89C106.788 19.5972 107.099 20.2615 107.615 20.7472C108.131 21.2329 108.813 21.5033 109.521 21.5033C110.229 21.5033 110.911 21.2329 111.427 20.7472C111.943 20.2615 112.253 19.5972 112.296 18.89V12.54C112.296 12.32 112.366 12.25 112.586 12.25H113.046C113.266 12.25 113.336 12.32 113.336 12.54V18.88C113.336 21.15 111.996 22.52 109.526 22.52C107.056 22.52 105.716 21.15 105.716 18.88V12.54C105.716 12.32 105.786 12.25 105.996 12.25H106.466C106.676 12.25 106.746 12.32 106.746 12.54V18.89Z" fill="#151515"/>
<path d="M127.136 12.25C127.356 12.25 127.426 12.32 127.426 12.54V22.02C127.426 22.24 127.356 22.31 127.136 22.31H126.716C126.506 22.31 126.436 22.24 126.436 22.02V16.25C126.436 15.4105 126.493 14.5719 126.606 13.74H126.546C126.234 14.5007 125.869 15.2391 125.456 15.95L123.306 19.74C123.28 19.8058 123.234 19.862 123.175 19.9013C123.116 19.9405 123.047 19.961 122.976 19.96H122.696C122.624 19.9604 122.554 19.9397 122.493 19.9007C122.433 19.8616 122.385 19.8058 122.356 19.74L120.176 15.91C119.789 15.2093 119.455 14.4806 119.176 13.73H119.116C119.218 14.5695 119.272 15.4143 119.276 16.26V22.02C119.276 22.24 119.206 22.31 118.986 22.31H118.596C118.376 22.31 118.306 22.24 118.306 22.02V12.54C118.306 12.32 118.376 12.25 118.596 12.25H118.956C119.038 12.2424 119.121 12.2603 119.192 12.3015C119.264 12.3427 119.321 12.4051 119.356 12.48L122.856 18.7L126.336 12.54C126.446 12.33 126.506 12.3 126.726 12.3L127.136 12.25Z" fill="#151515"/>
<path d="M12.7957 20.79V28.02C12.7957 28.2972 12.6856 28.563 12.4896 28.7589C12.2937 28.9549 12.0279 29.065 11.7507 29.065C11.4736 29.065 11.2078 28.9549 11.0118 28.7589C10.8158 28.563 10.7057 28.2972 10.7057 28.02V20.8C10.9967 21.0125 11.3455 21.1311 11.7057 21.14C12.0983 21.1512 12.483 21.0277 12.7957 20.79ZM21.6957 18.7C21.4305 18.7 21.1761 18.8054 20.9886 18.9929C20.8011 19.1804 20.6957 19.4348 20.6957 19.7V20.96C20.6957 21.2372 20.8058 21.503 21.0018 21.6989C21.1977 21.8949 21.4635 22.005 21.7407 22.005C22.0179 22.005 22.2837 21.8949 22.4796 21.6989C22.6756 21.503 22.7857 21.2372 22.7857 20.96V19.75C22.7935 19.6066 22.7703 19.4632 22.7177 19.3296C22.6651 19.196 22.5844 19.0752 22.4809 18.9756C22.3775 18.876 22.2538 18.7998 22.1184 18.7522C21.9829 18.7047 21.8387 18.6869 21.6957 18.7ZM8.43567 23.53C8.07584 23.5192 7.7275 23.4008 7.43567 23.19V30.44C7.43567 30.7185 7.54629 30.9856 7.74321 31.1825C7.94012 31.3794 8.20719 31.49 8.48567 31.49C8.76415 31.49 9.03122 31.3794 9.22813 31.1825C9.42505 30.9856 9.53567 30.7185 9.53567 30.44V23.24C9.20912 23.4511 8.82383 23.5527 8.43567 23.53ZM18.4357 16.53C18.3002 16.5232 18.1648 16.5441 18.0376 16.5913C17.9105 16.6385 17.7943 16.7111 17.696 16.8046C17.5978 16.8982 17.5197 17.0107 17.4663 17.1354C17.413 17.2601 17.3855 17.3944 17.3857 17.53V23.1C17.3857 23.3785 17.4963 23.6456 17.6932 23.8425C17.8902 24.0394 18.1572 24.15 18.4357 24.15C18.7142 24.15 18.9813 24.0394 19.1782 23.8425C19.3751 23.6456 19.4857 23.3785 19.4857 23.1V17.6C19.4937 17.4557 19.4703 17.3114 19.4171 17.177C19.3639 17.0426 19.2823 16.9213 19.1777 16.8215C19.0731 16.7217 18.9482 16.6457 18.8115 16.5989C18.6748 16.552 18.5295 16.5353 18.3857 16.55L18.4357 16.53ZM15.1157 18.67C14.739 18.6674 14.3724 18.5487 14.0657 18.33V25.6C14.0657 25.8785 14.1763 26.1456 14.3732 26.3425C14.5702 26.5394 14.8372 26.65 15.1157 26.65C15.3942 26.65 15.6612 26.5394 15.8582 26.3425C16.0551 26.1456 16.1657 25.8785 16.1657 25.6V18.34C15.8485 18.5763 15.4612 18.6995 15.0657 18.69L15.1157 18.67ZM6.16567 24.24V3.93C6.16304 3.68243 6.06284 3.44591 5.88684 3.27178C5.71084 3.09765 5.47325 2.99999 5.22567 3H5.00567C4.75809 2.99999 4.5205 3.09765 4.3445 3.27178C4.1685 3.44591 4.0683 3.68243 4.06567 3.93V24.24C4.06567 24.4893 4.16471 24.7284 4.34099 24.9047C4.51727 25.081 4.75637 25.18 5.00567 25.18H5.22567C5.47498 25.18 5.71407 25.081 5.89035 24.9047C6.06664 24.7284 6.16567 24.4893 6.16567 24.24ZM8.54567 22.76H8.32567C8.07637 22.76 7.83727 22.661 7.66099 22.4847C7.48471 22.3084 7.38567 22.0693 7.38567 21.82V6.35C7.38831 6.10244 7.4885 5.8659 7.6645 5.69178C7.8405 5.51765 8.07809 5.41999 8.32567 5.42H8.54567C8.79325 5.41999 9.03084 5.51765 9.20684 5.69178C9.38284 5.8659 9.48304 6.10244 9.48567 6.35V21.84C9.48567 22.0893 9.38663 22.3284 9.21035 22.5047C9.03407 22.681 8.79497 22.78 8.54567 22.78V22.76ZM11.8557 20.38H11.6257C11.3791 20.38 11.1425 20.282 10.9681 20.1076C10.7937 19.9332 10.6957 19.6967 10.6957 19.45V8.75C10.6944 8.62703 10.7175 8.50502 10.7636 8.39103C10.8097 8.27704 10.878 8.17334 10.9645 8.08592C11.051 7.9985 11.154 7.9291 11.2675 7.88174C11.381 7.83438 11.5027 7.80999 11.6257 7.81H11.8557C12.1033 7.81264 12.3398 7.91283 12.5139 8.08883C12.6881 8.26483 12.7857 8.50242 12.7857 8.75V19.45C12.7857 19.6967 12.6877 19.9332 12.5133 20.1076C12.3389 20.282 12.1024 20.38 11.8557 20.38ZM15.1657 17.93H14.9557C14.7081 17.93 14.4705 17.8324 14.2945 17.6582C14.1185 17.4841 14.0183 17.2476 14.0157 17V11.24C14.0075 11.1116 14.0257 10.9829 14.0693 10.8618C14.1128 10.7408 14.1808 10.6299 14.2689 10.5362C14.357 10.4424 14.4634 10.3678 14.5816 10.3168C14.6997 10.2659 14.827 10.2397 14.9557 10.24H15.1757C15.425 10.24 15.6641 10.339 15.8404 10.5153C16.0167 10.6916 16.1157 10.9307 16.1157 11.18V16.98C16.117 17.1043 16.0937 17.2276 16.047 17.3428C16.0004 17.458 15.9314 17.5628 15.8439 17.6512C15.7565 17.7395 15.6525 17.8096 15.5377 17.8575C15.423 17.9054 15.3 17.93 15.1757 17.93H15.1657ZM18.4857 15.78H18.2657C18.0164 15.78 17.7773 15.681 17.601 15.5047C17.4247 15.3284 17.3257 15.0893 17.3257 14.84V13.35C17.3283 13.1024 17.4285 12.8659 17.6045 12.6918C17.7805 12.5176 18.0181 12.42 18.2657 12.42H18.4857C18.7333 12.42 18.9709 12.5176 19.1469 12.6918C19.3229 12.8659 19.4231 13.1024 19.4257 13.35V14.84C19.4257 15.0876 19.3281 15.3252 19.1539 15.5012C18.9798 15.6772 18.7433 15.7774 18.4957 15.78H18.4857Z" fill="#151515"/>
</svg>
