<svg width="53" height="35" viewBox="0 0 53 35" fill="none" xmlns="http://www.w3.org/2000/svg">
<g clip-path="url(#clip0_911_1302)">
<path d="M49.345 1.09375C49.345 1.69781 49.8347 2.1875 50.4388 2.1875H51.5325C52.1366 2.1875 52.6263 1.69781 52.6263 1.09375C52.6263 0.489689 52.1366 0 51.5325 0H50.4388C49.8347 0 49.345 0.489689 49.345 1.09375Z" fill="#151515"/>
<path d="M17.6263 35H22.9395L21.3927 33.4532C20.9825 33.043 20.4261 32.8125 19.846 32.8125H17.6263C9.16941 32.8125 2.31378 25.9569 2.31378 17.5C2.31378 9.04313 9.16941 2.18751 17.6263 2.1875H35.1263C43.5832 2.1875 50.4388 9.04313 50.4388 17.5C50.4388 25.9569 43.5832 32.8125 35.1263 32.8125H28.5799C27.7096 32.8125 26.875 32.4668 26.2596 31.8515L24.4475 30.0393C23.4219 29.0137 22.0309 28.4375 20.5805 28.4375H17.6263C11.5856 28.4375 6.68878 23.5406 6.68878 17.5C6.68878 11.4593 11.5856 6.5625 17.6263 6.5625H35.1263C41.1669 6.5625 46.0638 11.4593 46.0638 17.5C46.0638 23.5406 41.1669 28.4375 35.1263 28.4375H30.9229C30.0526 28.4375 29.218 28.0918 28.6026 27.4765L26.7904 25.6643C25.7648 24.6387 24.3738 24.0625 22.9234 24.0625H17.6263C14.0019 24.0625 11.0638 21.1243 11.0638 17.5C11.0638 13.8757 14.0019 10.9375 17.6263 10.9375H35.1263C38.7506 10.9375 41.6888 13.8757 41.6888 17.5C41.6888 21.0802 38.8218 23.9908 35.2586 24.0612L35.2579 24.0625H33.6572C32.787 24.0625 31.9524 23.7168 31.337 23.1015L29.5248 21.2893C28.6833 20.4477 27.5958 19.9088 26.4312 19.7424L26.3763 19.6875H17.6263C16.4182 19.6875 15.4388 18.7081 15.4388 17.5C15.4388 16.2919 16.4182 15.3125 17.6263 15.3125H35.1263C36.3344 15.3125 37.3138 16.2919 37.3138 17.5C37.3138 18.7081 36.3344 19.6875 35.1263 19.6875H30.7513L32.2981 21.2343C32.7083 21.6445 33.2647 21.875 33.8448 21.875H35.1263C37.5425 21.875 39.5013 19.9162 39.5013 17.5C39.5013 15.0838 37.5425 13.125 35.1263 13.125H17.6263C15.2101 13.125 13.2513 15.0838 13.2513 17.5C13.2513 19.9162 15.2101 21.875 17.6263 21.875H25.6578C26.5281 21.875 27.3627 22.2207 27.9781 22.836L29.7903 24.6482C30.8159 25.6738 32.2068 26.25 33.6572 26.25H35.6732V26.2332C40.2509 25.9509 43.8763 22.1488 43.8763 17.5C43.8763 12.6676 39.9587 8.75 35.1263 8.75H17.6263C12.7938 8.75 8.87628 12.6676 8.87628 17.5C8.87628 22.3325 12.7938 26.25 17.6263 26.25H22.9234C23.7937 26.25 24.6283 26.5957 25.2437 27.211L27.0559 29.0232C28.0815 30.0488 29.4725 30.625 30.9229 30.625H35.1263C42.375 30.625 48.2513 24.7488 48.2513 17.5C48.2513 10.2512 42.375 4.375 35.1263 4.375H17.6263C10.3775 4.375 4.50128 10.2512 4.50128 17.5C4.50128 24.7488 10.3775 30.625 17.6263 30.625H20.5805C21.4507 30.625 22.2853 30.9707 22.9007 31.586L24.7129 33.3982C25.7385 34.4238 27.1295 35 28.5799 35H35.1263C44.7913 35 52.6263 27.165 52.6263 17.5C52.6263 7.83501 44.7913 -8.44939e-07 35.1263 0L17.6263 3.61606e-06C7.96129 4.461e-06 0.126281 7.83502 0.126282 17.5C0.126283 27.165 7.9613 35 17.6263 35Z" fill="#151515"/>
</g>
<defs>
<clipPath id="clip0_911_1302">
<rect width="52.5" height="35" fill="white" transform="translate(0.126282)"/>
</clipPath>
</defs>
</svg>
