<svg width="153" height="19" viewBox="0 0 153 19" fill="none" xmlns="http://www.w3.org/2000/svg">
<path d="M76.2789 16.3741H71.1589V2.68611H76.2789V16.3741ZM71.6589 15.8741H75.7789V3.18611H71.6589V15.8741ZM83.4029 16.3741H78.3859V2.68611H88.8679C90.3695 2.56451 91.8649 2.98608 93.0819 3.87411C93.6058 4.35342 94.0119 4.9473 94.2684 5.6094C94.525 6.27151 94.6251 6.98394 94.5609 7.69111C94.6357 8.91308 94.2468 10.1183 93.4719 11.0661C92.5549 12.1181 91.0289 12.6601 88.9369 12.6791C88.4099 12.6931 84.4609 12.6791 83.4059 12.6791L83.4029 16.3741ZM78.8829 15.8741H82.9029V12.1741H83.1539C83.2049 12.1741 88.3319 12.1901 88.9249 12.1741C90.8739 12.1571 92.2749 11.6741 93.0939 10.7311C93.7837 9.87356 94.1263 8.78826 94.0539 7.69011C94.1154 7.05648 94.0301 6.4172 93.8047 5.82185C93.5792 5.2265 93.2197 4.69108 92.7539 4.25711C91.6255 3.44721 90.2449 3.06704 88.8609 3.18511H78.8859L78.8829 15.8741ZM87.8059 9.60411H82.8689V5.87811H87.8389C88.1912 5.82943 88.5501 5.87055 88.8822 5.99764C89.2144 6.12474 89.5091 6.33369 89.7389 6.60511C89.9474 6.95205 90.0457 7.35409 90.0209 7.75811C90.0396 8.13321 89.9586 8.50658 89.7859 8.84011C89.5488 9.12599 89.2421 9.34606 88.8953 9.47916C88.5486 9.61226 88.1734 9.65391 87.8059 9.60011V9.60411ZM83.3689 9.10411H87.8059C88.6259 9.10411 89.1339 8.93311 89.3589 8.58111C89.4828 8.32526 89.5389 8.04187 89.5219 7.75811C89.5438 7.46017 89.4792 7.16225 89.3359 6.90011L89.3299 6.89111C89.0919 6.54111 88.6189 6.37811 87.8389 6.37811H83.3689V9.10411ZM103.686 16.5761C99.1959 16.5761 96.5159 15.4611 95.4949 13.1681C95.3278 12.7252 95.2144 12.2639 95.1569 11.7941L95.1129 11.5061H100.455L100.49 11.7161C100.531 11.9293 100.622 12.13 100.754 12.3021C100.965 12.5571 101.669 12.9851 104.005 12.9851C106.813 12.9851 106.813 12.4921 106.813 12.2271C106.813 11.7801 106.488 11.6271 104.198 11.3831L103.763 11.3421C102.901 11.2611 101.811 11.1581 101.313 11.1151C97.1129 10.7351 95.2379 9.43011 95.2379 6.88511C95.2379 4.21211 98.4289 2.48511 103.368 2.48511C107.397 2.48511 109.993 3.54711 111.082 5.64411C111.34 6.13189 111.514 6.6601 111.595 7.20611L111.63 7.48711H106.282L106.26 7.26111C106.239 7.08449 106.164 6.9188 106.044 6.78711C105.844 6.51911 105.212 6.07611 103.25 6.07611C100.841 6.07611 100.509 6.38411 100.509 6.71611C100.509 7.15911 101.27 7.31611 103.709 7.57711C104.726 7.66011 106.361 7.82811 106.921 7.89611C110.442 8.27811 112.013 9.55111 112.013 12.0251C112.014 14.1001 110.569 16.5761 103.686 16.5761ZM95.6969 12.0061C95.747 12.3359 95.8332 12.6591 95.9539 12.9701C96.8839 15.0591 99.4139 16.0761 103.686 16.0761C107.258 16.0761 111.517 15.3761 111.517 12.0251C111.517 9.83211 110.127 8.74611 106.868 8.39311C106.308 8.32511 104.683 8.15811 103.668 8.07411C101.068 7.79211 100.011 7.64211 100.011 6.71611C100.011 5.75811 101.15 5.57611 103.252 5.57611C104.913 5.57611 105.986 5.87611 106.441 6.48111C106.565 6.63016 106.659 6.80206 106.717 6.98711H111.051C110.964 6.60036 110.826 6.2268 110.641 5.87611C109.641 3.95711 107.198 2.98511 103.37 2.98511C98.7349 2.98511 95.7399 4.51611 95.7399 6.88511C95.7399 9.14511 97.4209 10.2611 101.359 10.6171C101.859 10.6601 102.948 10.7631 103.812 10.8451L104.25 10.8861C106.377 11.1101 107.315 11.2501 107.315 12.2271C107.315 13.2791 106.102 13.4851 104.007 13.4851C102.069 13.4851 100.845 13.1941 100.372 12.6211C100.226 12.4384 100.116 12.2297 100.048 12.0061H95.6969ZM121.513 16.5591C116.293 16.5591 113.413 14.4481 113.413 10.6141V2.68611H118.465V10.6141C118.465 11.9291 119.642 12.6831 121.693 12.6831C123.653 12.6831 124.87 11.8961 124.87 10.6311V2.68611H129.87V11.0341C129.875 14.5451 126.826 16.5591 121.51 16.5591H121.513ZM113.913 3.18611V10.6141C113.913 15.3521 118.671 16.0591 121.513 16.0591C124.451 16.0591 129.378 15.4061 129.378 11.0341V3.18611H125.378V10.6311C125.378 12.1811 123.934 13.1831 121.701 13.1831C119.367 13.1831 117.973 12.2231 117.973 10.6141V3.18611H113.913ZM151.058 16.3741H146.29V10.1941L143.586 16.3741H139.427L136.751 10.2061V16.3741H131.966V2.68611H138.26L141.53 10.2331L144.958 2.68611H151.064L151.058 16.3741ZM146.79 15.8741H150.558V3.18611H145.276L141.514 11.4651L137.928 3.18611H132.462V15.8741H136.247V7.80011L139.747 15.8771H143.247L146.784 7.81211L146.79 15.8741ZM6.63994 2.93611H2.08594V16.1241H14.6699V12.6131H6.63994V2.93611ZM23.8619 2.63611C18.0489 2.63611 14.9919 5.39111 14.9919 9.43611C14.9919 14.0061 18.2009 16.3241 23.8619 16.3241C30.0939 16.3241 32.7149 13.6361 32.7149 9.43611C32.7149 5.17111 29.7579 2.63411 23.8619 2.63411V2.63611ZM23.8449 6.06311C24.2406 6.06125 24.6361 6.08429 25.0289 6.13211L19.9379 11.2231C19.697 10.6782 19.5795 10.0867 19.5939 9.49111C19.5939 7.42211 20.6359 6.06111 23.8449 6.06111V6.06311ZM23.8619 12.9511C23.4806 12.9528 23.0996 12.9314 22.7209 12.8871L27.8209 7.78711C28.0528 8.32301 28.1638 8.90344 28.1459 9.48711C28.1459 11.5001 27.1859 12.9491 23.8619 12.9491V12.9511ZM41.7379 11.1511H46.4249C46.3559 11.4764 46.2121 11.7811 46.0049 12.0411C45.0332 12.8327 43.7931 13.2179 42.5439 13.1161C41.9151 13.1834 41.2793 13.1147 40.6794 12.9147C40.0795 12.7148 39.5295 12.3882 39.0669 11.9571C38.593 11.262 38.3679 10.4272 38.4279 9.58811C38.3512 8.70885 38.596 7.83163 39.1169 7.11911C39.7719 6.37911 40.8809 6.06011 42.5109 6.06011C43.548 5.97424 44.5838 6.24059 45.4509 6.81611C45.7242 7.03319 45.9285 7.32502 46.0389 7.65611H50.3859C50.3543 7.11058 50.2231 6.57544 49.9989 6.07711C48.9579 3.96011 46.5379 2.70011 42.4229 2.70011C38.8439 2.70011 36.4419 3.79211 35.1149 5.43911C34.2385 6.62847 33.7886 8.07855 33.8379 9.55511C33.7812 11.0651 34.2195 12.5522 35.0859 13.7901C36.3969 15.4901 38.7319 16.3261 41.5379 16.3261C43.4034 16.4562 45.2562 15.9337 46.7789 14.8481L46.8969 16.1241H50.5079V8.31211H41.7379V11.1511ZM60.7569 2.63311C54.9449 2.63311 51.8869 5.38811 51.8869 9.43311C51.8869 14.0031 55.0949 16.3211 60.7569 16.3211C66.9899 16.3211 69.6109 13.6331 69.6109 9.43311C69.6109 5.17111 66.6539 2.63411 60.7569 2.63411V2.63311ZM60.7409 6.06011C61.1262 6.05897 61.5112 6.08101 61.8939 6.12611L56.8229 11.2001C56.5895 10.6612 56.4759 10.0782 56.4899 9.49111C56.4859 7.42211 57.5319 6.06111 60.7409 6.06111V6.06011ZM60.7569 12.9481C60.3655 12.9498 59.9744 12.927 59.5859 12.8801L64.7029 7.76211C64.9436 8.30514 65.0588 8.89543 65.0399 9.48911C65.0419 11.5001 64.0859 12.9491 60.7569 12.9491V12.9481Z" fill="#151515"/>
</svg>
